<svg id="Layer_1" data-name="Layer 1" xmlns="http://www.w3.org/2000/svg" viewBox="0 0 232.53 232.53"><defs><style>.cls-1{fill:none;stroke:#fc0;stroke-miterlimit:10;stroke-width:6px;}.cls-2{fill:#fc0;}</style></defs><g id="vitruvian"><circle class="cls-1" cx="116.26" cy="116.26" r="113.26"/><path id="Man" class="cls-2" d="M448.37,211s4.91,1.52,6.42,5.48L466,223.12s12.26,3.33,14.24,7a21,21,0,0,0,6,1.28c3.33.21,9.57,3.4,10.14,4.53,0,0-.43.5,4,.71s6,2.34,6,2.34h4.11s7-3.82,7.8-5.1-.78-8.72-.78-8.72-1.56.78-1.7-1.13-.43-5.17.85-4.54c0,0-.93-7.15,4.6-9.56s11.2,1.49,10.35,9.07c0,0,1.42-.43,1.42,2.05s-.29,4.68-2.06,4.25L529.89,234s5.74,4.47,8.71,5.32,6.31-1.49,6.31-1.49a16.44,16.44,0,0,1,7-1.56,23.94,23.94,0,0,1,13.67-5,8.16,8.16,0,0,0,4.89-3.26c1.78-2.69,12.05-4.89,12.05-4.89s7.87-5.53,10.56-6.31c0,0,2.76-5.45,7.16-5.88l.85-.85,8.57,8.08-1.34.49a10.78,10.78,0,0,0-4.75.5s-4.61,4.18-9.57,4.47c0,0-8.57,5.45-12.4,8.85s-7.51,4.82-8.65,4.82-6.73,3-7,4.11,9.21.36,9.21.36,9.28-.92,11.48.21l8.79-.21,5.38-.64.36,6.94s-2.77-1.13-9.07.78-16.09,3.12-22.4,2a25.31,25.31,0,0,0-6.3,1.63c-2.06,1.06-10.63-.36-10.63-.36l-7.23-.92s-1,11.55-5,17.36c0,0-3.9,9.57-.64,16.73,0,0,1.27,13.25,4.39,16,0,0,11.7,17.72,11.48,26.72,0,0,1.42,3.33.92,4.68,0,0,4.89,5.95,5,8.71,0,0,10.13,10.85,10.13,19.92,0,0,3,13.32,4.82,15.38,0,0,.85,3.18,7.3,5.1l3.19.85-13.47,7.37-.35-6.1s-.07-2.12-4-9.35c0,0-9.71-11.62-10.56-14s-2.91-10.13-2.91-10.13-5.67-5.32-7.93-10.07c0,0-1.63-2.41-2.13-3.19,0,0-2-.85-2.83-4.32,0,0-1.7.92-1.7,4.82s.35,8,.35,8l-.21,5.74s1.77,6.38.64,8.57a128.1,128.1,0,0,0-2.27,17.65c-.5,9.28-1.14,13.75,11.19,19s1.42,2.34,1.42,2.34l-20.12,2.05s-.85-5.38.78-8.15v-7.93s-3.05-12.83-3.34-17.08-.49-10.42,1.35-14.1c0,0-1.65-7.35-2-21a21.7,21.7,0,0,1-2.27-10.3s-1.7-9.59-.9-12.05l-2.78,0s-.85,18.29-3,22.4c0,0-1.32,16.06-2.83,19.37,0,0,4.68,14.59,1,20.59,0,0-2.17,3-2.27,13.61,0,0-.71,6.85.76,9.36s-2.79,4-2.79,4l-18.28-2.6s10.91-2.83,13-8.08a58.26,58.26,0,0,0,.19-17.38s-2.93-11.34-1.85-18a45.26,45.26,0,0,0,.48-11.62s.94-4.49,0-6.43a14.79,14.79,0,0,1-1.18-3l-.9-.05s.19.94-1,2.74-3.59,4.77-4,6.71-2.84,3.73-3.59,4.35-3.4,2.83-3.88,5-2.5,10.72-5.24,13c0,0-7.89,8.83-8.69,11.9,0,0-3.4,5.39-3.73,7a25.54,25.54,0,0,0,.09,5.44l-12.43-5.86s7.28-1.61,9.26-5.62,4.49-15,4.49-15,1.42-8.93,4-11.48c0,0,.43-2.79,5.39-7.46,0,0,.09-2.08,2.41-4.68s5.48-12.28,5.15-14.46c0,0,1.32-6.19,6.85-16.53,0,0,3.92-7.51,6-9.69s2.37-13.41,2.37-13.41,3.92-7.28-2.41-19.61c0,0-2.93-5.15-3-13.8l-4.91.24s-9.26,3.73-17.25-.33c0,0-14.88.85-20.22-1.28,0,0-6.09-.61-9.16-2.07l-4.16.14.47-7.18s8.51,1.7,15,1a53.18,53.18,0,0,1,12.66.37s6.38.29,7-.42-1.56-1.61-1.56-1.61-15-6.05-18.19-10.68a73.15,73.15,0,0,0-6.94-5s-6.43-1.65-9.07-4.49c0,0-1.52-1-6.29-1.46s5-8.65,5-8.65Z" transform="translate(-408.71 -173.74)"/><circle class="cls-1" cx="200.62" cy="70.07" r="6.52"/><circle class="cls-1" cx="30.62" cy="70.07" r="6.52"/></g></svg>